<svg width="24" height="24" viewBox="0 0 24 24" fill="none" xmlns="http://www.w3.org/2000/svg">
  <style>
    path { stroke: #0a0a0a; }
    @media (prefers-color-scheme: dark) { path { stroke: #f9fafb; } }
  </style>
  <path d="M2 20V3.5C2 2.67157 2.67157 2 3.5 2C4.32843 2 5 2.67157 5 3.5V17.5C5 18.3284 5.67157 19 6.5 19C7.32843 19 8 18.3284 8 17.5V3.5C8 2.67157 8.67157 2 9.5 2C10.3284 2 11 2.67157 11 3.5V20" stroke-width="2"/>
  <path d="M14 1V17.5C14 18.3284 14.6716 19 15.5 19C16.3284 19 17 18.3284 17 17.5V1" stroke-width="2"/>
  <path d="M20 1V17.5C20 18.3284 20.6716 19 21.5 19C22.3284 19 23 18.3284 23 17.5V1" stroke-width="2"/>
  <path d="M1 22H20.9998C22.1044 22 22.9998 21.1046 22.9998 20V16" stroke-width="2"/>
</svg>
